<?xml version="1.0" standalone="no"?>
<!DOCTYPE svg PUBLIC "-//W3C//DTD SVG 20010904//EN"
 "http://www.w3.org/TR/2001/REC-SVG-20010904/DTD/svg10.dtd">
<svg version="1.0" xmlns="http://www.w3.org/2000/svg"
 width="291.000000pt" height="300.000000pt" viewBox="0 0 291.000000 300.000000"
 preserveAspectRatio="xMidYMid meet">

<g transform="translate(0.000000,300.000000) scale(0.100000,-0.100000)"
fill="#000000" stroke="none">
<path d="M1403 2990 c-157 -29 -306 -119 -399 -244 -59 -78 -89 -137 -113
-225 l-20 -70 32 -5 c18 -3 62 -7 98 -10 l67 -5 11 46 c50 197 220 323 436
323 216 0 386 -127 436 -325 l12 -47 91 7 c50 4 93 9 95 11 9 8 -22 121 -49
179 -98 216 -311 359 -553 370 -50 2 -115 0 -144 -5z"/>
<path d="M1965 2066 c-163 -38 -296 -137 -384 -287 -26 -45 -61 -144 -62 -178
0 -31 -4 -24 -38 83 -56 173 -186 301 -366 361 -73 25 -90 27 -195 23 -88 -4
-129 -11 -175 -28 -171 -65 -292 -193 -351 -367 -31 -92 -36 -232 -11 -323 18
-63 14 -82 -3 -22 -10 32 -21 43 -56 60 l-44 22 -1 -28 c0 -15 -2 -38 -4 -52
-6 -51 -7 -117 -6 -618 1 -606 -12 -552 131 -552 l89 0 12 43 c34 128 100 263
179 368 102 136 272 268 429 334 119 50 133 52 185 16 69 -48 187 -101 223
-101 17 0 39 7 47 16 9 8 22 12 28 8 10 -5 10 -4 2 5 -8 9 -18 9 -39 1 -39
-15 -76 -1 -217 79 -128 72 -134 81 -103 142 l16 29 -48 -29 c-78 -48 -162
-71 -255 -71 -140 0 -249 42 -344 132 -211 199 -217 516 -14 718 104 104 213
150 355 150 86 0 154 -18 235 -61 239 -127 330 -430 201 -674 -14 -27 -27 -53
-29 -57 -2 -3 22 3 53 14 l55 21 26 86 c14 47 27 91 29 96 2 6 4 -2 4 -17 1
-14 10 -54 20 -87 l19 -61 -22 -1 c-11 0 2 -6 29 -14 28 -7 62 -18 78 -24 15
-6 27 -9 27 -7 0 2 -11 23 -24 47 -86 155 -75 368 25 518 197 295 631 295 828
0 56 -84 82 -173 82 -279 0 -225 -138 -415 -350 -480 -120 -38 -292 -20 -389
40 -18 11 -34 20 -36 20 -2 0 1 -16 7 -35 10 -33 8 -36 -31 -75 -23 -22 -42
-45 -42 -51 0 -33 -134 -171 -192 -196 -36 -16 -48 -35 -29 -47 13 -8 92 46
134 93 21 24 57 71 78 104 22 34 46 65 52 69 18 9 173 -51 254 -100 190 -113
318 -244 413 -424 35 -67 36 -67 59 -52 40 29 140 163 176 238 64 133 77 206
77 416 0 102 -1 200 -3 219 l-3 33 -66 -6 c-37 -4 -69 -13 -75 -20 -5 -8 -15
-23 -22 -33 -7 -10 1 11 16 47 41 91 55 174 48 278 -15 234 -164 431 -387 508
-90 31 -219 40 -305 20z m-769 -1118 c-11 -3 -39 -6 -61 -7 l-40 0 55 22 c48
20 56 21 61 7 4 -10 -1 -17 -15 -22z m-109 -14 c-3 -3 -12 -4 -19 -1 -8 3 -5
6 6 6 11 1 17 -2 13 -5z m-54 -11 c-7 -2 -19 -2 -25 0 -7 3 -2 5 12 5 14 0 19
-2 13 -5z"/>
<path d="M990 1822 c0 -2 7 -25 16 -51 21 -58 8 -113 -37 -159 -64 -65 -162
-63 -226 4 -17 19 -34 34 -37 34 -2 0 -12 -23 -21 -51 -24 -71 -17 -178 15
-244 31 -63 92 -124 155 -156 69 -33 207 -35 277 -2 70 32 141 107 168 179 32
85 26 198 -15 272 -51 94 -141 158 -242 171 -29 4 -53 6 -53 3z"/>
<path d="M2043 1822 l-22 -3 19 -37 c41 -75 17 -158 -59 -209 -59 -40 -155
-25 -198 31 l-21 27 -11 -33 c-21 -66 -23 -114 -7 -176 28 -112 100 -193 205
-233 44 -17 71 -20 131 -17 90 6 154 35 217 100 64 65 88 127 88 223 0 71 -4
88 -33 147 -49 100 -131 160 -241 177 -25 3 -56 5 -68 3z"/>
<path d="M1290 886 c0 -2 8 -10 18 -17 15 -13 16 -12 3 4 -13 16 -21 21 -21
13z"/>
<path d="M1520 210 l0 -51 273 4 c149 3 288 8 307 12 19 3 43 7 53 8 9 1 17 5
17 9 0 4 10 8 23 9 21 0 21 1 2 8 -11 5 -85 11 -165 15 -240 11 -494 27 -502
32 -4 3 -8 -18 -8 -46z"/>
</g>
</svg>
